<svg id="svg" version="1.1" xmlns="http://www.w3.org/2000/svg" xmlns:xlink="http://www.w3.org/1999/xlink" width="400" height="400" viewBox="0, 0, 400,400"><g id="svgg"><path id="path0" d="M56.985 98.100 C 56.881 98.375,56.841 144.590,56.898 200.800 L 57.000 303.000 76.000 303.000 L 95.000 303.000 95.102 258.302 L 95.203 213.604 131.902 213.502 L 168.600 213.400 168.600 196.600 L 168.600 179.800 131.897 179.698 L 95.194 179.596 95.297 155.698 L 95.400 131.800 137.100 131.698 L 178.800 131.596 178.800 114.598 L 178.800 97.600 117.987 97.600 C 69.705 97.600,57.136 97.703,56.985 98.100 M194.706 97.896 C 194.402 98.529,196.086 142.822,197.189 163.200 C 197.410 167.270,197.770 174.110,197.991 178.400 C 198.608 190.411,200.085 212.729,201.207 227.000 C 201.415 229.640,201.775 234.230,202.007 237.200 C 202.239 240.170,202.595 244.400,202.799 246.600 C 203.003 248.800,203.355 252.670,203.580 255.200 C 203.806 257.730,204.085 260.700,204.202 261.800 C 204.318 262.900,204.590 265.510,204.806 267.600 C 205.023 269.690,205.379 272.930,205.599 274.800 C 205.819 276.670,206.173 279.730,206.386 281.600 C 206.786 285.104,207.262 288.779,207.992 294.000 C 208.223 295.650,208.523 298.080,208.659 299.400 C 209.091 303.585,207.272 303.200,226.614 303.200 C 243.371 303.200,243.600 303.189,243.600 302.395 C 243.600 301.952,243.759 301.277,243.954 300.895 C 244.149 300.513,244.662 299.030,245.094 297.600 C 246.705 292.274,247.752 288.917,248.711 286.000 C 249.253 284.350,249.835 282.460,250.005 281.800 C 250.280 280.731,254.619 266.650,256.105 262.000 C 256.422 261.010,257.089 258.850,257.588 257.200 C 258.087 255.550,258.632 253.840,258.800 253.400 C 258.968 252.960,259.511 251.250,260.008 249.600 C 260.505 247.950,261.221 245.610,261.600 244.400 C 261.979 243.190,262.702 240.850,263.206 239.200 C 264.232 235.844,265.909 230.515,267.361 226.000 C 268.720 221.774,268.788 221.820,270.807 228.400 C 271.516 230.710,272.233 232.960,272.400 233.400 C 272.568 233.840,273.113 235.550,273.611 237.200 C 274.110 238.850,275.007 241.730,275.605 243.600 C 276.204 245.470,277.459 249.430,278.395 252.400 C 279.331 255.370,280.781 259.960,281.616 262.600 C 283.647 269.016,286.777 279.063,287.287 280.800 C 287.513 281.570,287.856 282.513,288.049 282.895 C 288.242 283.277,288.400 283.864,288.400 284.200 C 288.400 284.536,288.562 285.123,288.759 285.505 C 288.956 285.887,289.518 287.550,290.007 289.200 C 290.495 290.850,291.035 292.560,291.206 293.000 C 291.820 294.578,294.004 301.809,294.002 302.257 C 293.997 303.317,327.588 303.790,328.238 302.739 C 328.395 302.485,328.675 300.775,328.862 298.939 C 329.048 297.102,329.386 294.025,329.613 292.100 C 330.809 281.969,331.170 278.742,331.972 271.000 C 332.200 268.800,332.484 266.100,332.602 265.000 C 332.720 263.900,333.000 261.110,333.225 258.800 C 333.691 254.003,334.233 248.697,334.817 243.200 C 335.322 238.445,337.438 212.299,337.988 204.000 C 338.214 200.590,338.584 195.280,338.810 192.200 C 339.036 189.120,339.403 183.450,339.624 179.600 C 340.006 172.976,340.193 169.692,341.196 152.000 C 341.758 142.094,342.346 129.475,342.790 117.800 C 342.991 112.520,343.282 105.815,343.438 102.900 L 343.721 97.600 325.084 97.600 C 314.834 97.600,306.392 97.735,306.324 97.900 C 306.169 98.274,306.609 129.136,307.179 158.000 C 307.591 178.838,308.002 203.333,308.637 244.837 C 308.930 263.995,308.742 267.229,307.610 262.503 C 307.360 261.456,307.005 259.970,306.822 259.200 C 306.639 258.430,305.111 252.400,303.426 245.800 C 301.741 239.200,300.202 233.080,300.007 232.200 C 299.811 231.320,299.448 229.880,299.199 229.000 C 298.950 228.120,298.571 226.680,298.355 225.800 C 298.140 224.920,297.792 223.525,297.582 222.700 C 297.372 221.875,297.012 220.435,296.782 219.500 C 296.552 218.565,296.192 217.125,295.982 216.300 C 295.772 215.475,295.435 214.125,295.233 213.300 C 295.032 212.475,294.297 209.640,293.601 207.000 C 292.905 204.360,292.172 201.480,291.973 200.600 C 291.774 199.720,291.417 198.280,291.179 197.400 C 290.700 195.625,290.182 193.569,289.644 191.300 C 288.645 187.083,285.117 173.231,284.755 172.100 L 284.338 170.800 268.818 170.800 C 256.865 170.800,253.213 170.915,252.929 171.300 C 252.727 171.575,251.966 174.320,251.238 177.400 C 249.964 182.795,243.560 209.131,242.825 212.000 C 242.628 212.770,242.271 214.165,242.033 215.100 C 241.795 216.035,241.405 217.565,241.167 218.500 C 240.929 219.435,240.569 220.875,240.367 221.700 C 240.165 222.525,239.827 223.875,239.616 224.700 C 238.497 229.072,237.887 231.562,237.582 233.000 C 237.122 235.176,236.182 239.039,234.784 244.500 C 233.966 247.695,233.588 249.228,231.953 255.988 C 231.023 259.831,230.033 263.415,229.755 263.952 L 229.248 264.930 228.975 263.843 C 228.825 263.245,228.819 260.021,228.961 256.678 C 229.104 253.335,229.399 240.250,229.617 227.600 C 230.445 179.654,230.739 163.432,231.243 138.000 C 231.528 123.590,231.770 108.650,231.781 104.800 L 231.800 97.800 213.326 97.696 C 203.165 97.639,194.786 97.729,194.706 97.896 " stroke="none" fill="#fafafa" fill-rule="evenodd"></path><path id="path1" d="M30.400 0.291 C 29.630 0.382,28.829 0.624,28.620 0.829 C 28.411 1.033,27.837 1.200,27.344 1.200 C 26.851 1.200,26.336 1.380,26.200 1.600 C 26.064 1.820,25.513 2.000,24.976 2.000 C 24.439 2.000,24.000 2.180,24.000 2.400 C 24.000 2.620,23.640 2.800,23.200 2.800 C 22.760 2.800,22.400 2.980,22.400 3.200 C 22.400 3.420,22.040 3.600,21.600 3.600 C 21.160 3.600,20.800 3.780,20.800 4.000 C 20.800 4.220,20.440 4.400,20.000 4.400 C 19.560 4.400,19.200 4.580,19.200 4.800 C 19.200 5.020,18.912 5.200,18.560 5.200 C 18.209 5.200,17.417 5.740,16.800 6.400 C 16.183 7.060,15.476 7.600,15.229 7.600 C 14.787 7.600,12.695 9.339,11.038 11.083 C 8.133 14.142,7.600 14.780,7.600 15.205 C 7.600 15.466,7.060 16.183,6.400 16.800 C 5.740 17.417,5.200 18.209,5.200 18.560 C 5.200 18.912,5.020 19.200,4.800 19.200 C 4.580 19.200,4.400 19.560,4.400 20.000 C 4.400 20.440,4.220 20.800,4.000 20.800 C 3.780 20.800,3.600 21.160,3.600 21.600 C 3.600 22.040,3.420 22.400,3.200 22.400 C 2.980 22.400,2.800 22.760,2.800 23.200 C 2.800 23.640,2.620 24.000,2.400 24.000 C 2.180 24.000,2.000 24.439,2.000 24.976 C 2.000 25.513,1.820 26.064,1.600 26.200 C 1.380 26.336,1.200 26.851,1.200 27.344 C 1.200 27.837,0.975 28.465,0.700 28.740 C -0.036 29.476,-0.036 370.524,0.700 371.260 C 0.975 371.535,1.200 372.163,1.200 372.656 C 1.200 373.149,1.380 373.664,1.600 373.800 C 1.820 373.936,2.000 374.487,2.000 375.024 C 2.000 375.561,2.180 376.000,2.400 376.000 C 2.620 376.000,2.800 376.360,2.800 376.800 C 2.800 377.240,2.980 377.600,3.200 377.600 C 3.420 377.600,3.600 377.960,3.600 378.400 C 3.600 378.840,3.780 379.200,4.000 379.200 C 4.220 379.200,4.400 379.560,4.400 380.000 C 4.400 380.440,4.580 380.800,4.800 380.800 C 5.020 380.800,5.200 381.088,5.200 381.440 C 5.200 381.791,5.740 382.583,6.400 383.200 C 7.060 383.817,7.600 384.524,7.600 384.771 C 7.600 385.756,14.244 392.400,15.229 392.400 C 15.476 392.400,16.183 392.940,16.800 393.600 C 17.417 394.260,18.209 394.800,18.560 394.800 C 18.912 394.800,19.200 394.980,19.200 395.200 C 19.200 395.420,19.560 395.600,20.000 395.600 C 20.440 395.600,20.800 395.780,20.800 396.000 C 20.800 396.220,21.160 396.400,21.600 396.400 C 22.040 396.400,22.400 396.580,22.400 396.800 C 22.400 397.020,22.760 397.200,23.200 397.200 C 23.640 397.200,24.000 397.380,24.000 397.600 C 24.000 397.820,24.439 398.000,24.976 398.000 C 25.513 398.000,26.064 398.180,26.200 398.400 C 26.336 398.620,26.851 398.800,27.344 398.800 C 27.837 398.800,28.465 399.025,28.740 399.300 C 29.476 400.036,370.524 400.036,371.260 399.300 C 371.535 399.025,372.163 398.800,372.656 398.800 C 373.149 398.800,373.664 398.620,373.800 398.400 C 373.936 398.180,374.487 398.000,375.024 398.000 C 375.561 398.000,376.000 397.820,376.000 397.600 C 376.000 397.380,376.360 397.200,376.800 397.200 C 377.240 397.200,377.600 397.020,377.600 396.800 C 377.600 396.580,377.960 396.400,378.400 396.400 C 378.840 396.400,379.200 396.220,379.200 396.000 C 379.200 395.780,379.560 395.600,380.000 395.600 C 380.440 395.600,380.800 395.420,380.800 395.200 C 380.800 394.980,381.088 394.800,381.440 394.800 C 381.791 394.800,382.583 394.260,383.200 393.600 C 383.817 392.940,384.524 392.400,384.771 392.400 C 385.192 392.400,387.036 390.887,388.962 388.962 C 390.887 387.036,392.400 385.192,392.400 384.771 C 392.400 384.524,392.940 383.817,393.600 383.200 C 394.260 382.583,394.800 381.791,394.800 381.440 C 394.800 381.088,394.980 380.800,395.200 380.800 C 395.420 380.800,395.600 380.440,395.600 380.000 C 395.600 379.560,395.780 379.200,396.000 379.200 C 396.220 379.200,396.400 378.840,396.400 378.400 C 396.400 377.960,396.580 377.600,396.800 377.600 C 397.020 377.600,397.200 377.240,397.200 376.800 C 397.200 376.360,397.380 376.000,397.600 376.000 C 397.820 376.000,398.000 375.561,398.000 375.024 C 398.000 374.487,398.180 373.936,398.400 373.800 C 398.620 373.664,398.800 373.149,398.800 372.656 C 398.800 372.163,399.025 371.535,399.300 371.260 C 400.036 370.524,400.036 29.476,399.300 28.740 C 399.025 28.465,398.800 27.837,398.800 27.344 C 398.800 26.851,398.620 26.336,398.400 26.200 C 398.180 26.064,398.000 25.513,398.000 24.976 C 398.000 24.439,397.820 24.000,397.600 24.000 C 397.380 24.000,397.200 23.640,397.200 23.200 C 397.200 22.760,397.020 22.400,396.800 22.400 C 396.580 22.400,396.400 22.040,396.400 21.600 C 396.400 21.160,396.220 20.800,396.000 20.800 C 395.780 20.800,395.600 20.440,395.600 20.000 C 395.600 19.560,395.420 19.200,395.200 19.200 C 394.980 19.200,394.800 18.912,394.800 18.560 C 394.800 18.209,394.260 17.417,393.600 16.800 C 392.940 16.183,392.400 15.476,392.400 15.229 C 392.400 14.244,385.756 7.600,384.771 7.600 C 384.524 7.600,383.817 7.060,383.200 6.400 C 382.583 5.740,381.791 5.200,381.440 5.200 C 381.088 5.200,380.800 5.020,380.800 4.800 C 380.800 4.580,380.440 4.400,380.000 4.400 C 379.560 4.400,379.200 4.220,379.200 4.000 C 379.200 3.780,378.840 3.600,378.400 3.600 C 377.960 3.600,377.600 3.420,377.600 3.200 C 377.600 2.980,377.240 2.800,376.800 2.800 C 376.360 2.800,376.000 2.620,376.000 2.400 C 376.000 2.180,375.561 2.000,375.024 2.000 C 374.487 2.000,373.936 1.820,373.800 1.600 C 373.664 1.380,373.149 1.200,372.656 1.200 C 372.163 1.200,371.535 0.975,371.260 0.700 C 370.782 0.222,34.383 -0.182,30.400 0.291 M179.400 114.600 L 179.400 132.200 137.500 132.302 L 95.600 132.404 95.600 155.600 L 95.600 178.796 132.500 178.898 L 169.400 179.000 169.400 196.600 L 169.400 214.200 132.502 214.302 L 95.603 214.404 95.502 259.102 L 95.400 303.800 76.026 303.904 C 60.792 303.986,56.584 303.900,56.332 303.504 C 55.948 302.898,55.884 97.450,56.268 97.065 C 56.415 96.918,84.180 96.843,117.968 96.899 L 179.400 97.000 179.400 114.600 M232.470 97.300 C 232.642 97.851,232.299 120.583,231.604 154.800 C 230.533 207.448,229.830 262.146,230.248 260.200 C 230.343 259.760,230.591 258.770,230.800 258.000 C 231.009 257.230,231.825 253.900,232.615 250.600 C 234.869 241.178,237.980 228.348,238.409 226.700 C 238.624 225.875,238.980 224.480,239.200 223.600 C 239.420 222.720,239.780 221.280,240.000 220.400 C 240.220 219.520,240.595 218.035,240.833 217.100 C 241.071 216.165,241.431 214.725,241.633 213.900 C 242.439 210.604,242.871 208.944,243.227 207.772 C 243.432 207.096,243.600 206.072,243.600 205.495 C 243.600 204.919,243.780 204.336,244.000 204.200 C 244.220 204.064,244.400 203.344,244.400 202.600 C 244.400 201.856,244.580 201.136,244.800 201.000 C 245.020 200.864,245.200 200.144,245.200 199.400 C 245.200 198.656,245.380 197.936,245.600 197.800 C 245.820 197.664,246.000 197.081,246.000 196.505 C 246.000 195.928,246.168 194.904,246.373 194.228 C 246.929 192.397,247.427 190.422,249.004 183.800 C 251.548 173.113,252.102 171.009,252.503 170.500 C 252.807 170.115,256.520 170.000,268.620 170.000 C 286.175 170.000,285.283 169.850,285.764 172.873 C 285.916 173.823,286.405 175.950,286.850 177.600 C 287.694 180.721,288.232 182.821,288.800 185.200 C 288.984 185.970,289.329 187.365,289.567 188.300 C 289.805 189.235,290.195 190.765,290.433 191.700 C 290.671 192.635,291.031 194.075,291.233 194.900 C 291.435 195.725,291.765 197.075,291.967 197.900 C 292.666 200.756,293.256 203.005,293.627 204.228 C 293.832 204.904,294.000 205.838,294.000 206.305 C 294.000 206.771,294.160 207.252,294.356 207.373 C 294.551 207.494,294.808 208.179,294.927 208.896 C 295.045 209.613,295.335 210.965,295.571 211.900 C 295.807 212.835,296.180 214.320,296.400 215.200 C 296.620 216.080,296.972 217.475,297.182 218.300 C 297.392 219.125,297.734 220.520,297.942 221.400 C 298.150 222.280,299.604 228.130,301.174 234.400 C 305.247 250.674,305.566 251.898,306.042 253.119 C 306.239 253.624,306.400 254.559,306.400 255.195 C 306.400 255.832,306.560 256.452,306.756 256.573 C 306.951 256.694,307.211 257.379,307.333 258.096 C 308.187 263.131,308.337 262.105,308.165 252.400 C 307.765 229.788,307.185 196.648,306.843 176.800 C 306.644 165.250,306.252 144.460,305.972 130.600 C 305.693 116.740,305.449 103.510,305.432 101.200 L 305.400 97.000 324.747 96.896 L 344.094 96.792 343.843 105.896 C 343.542 116.798,342.954 131.421,342.402 141.700 C 340.475 177.624,339.853 187.809,338.413 207.000 C 338.215 209.640,337.867 214.410,337.639 217.600 C 337.412 220.790,337.040 225.470,336.813 228.000 C 336.586 230.530,336.215 234.850,335.989 237.600 C 335.763 240.350,335.318 245.120,334.999 248.200 C 334.680 251.280,334.148 256.590,333.817 260.000 C 333.154 266.826,332.544 272.605,332.000 277.200 C 331.805 278.850,331.446 282.090,331.203 284.400 C 330.960 286.710,330.670 289.320,330.559 290.200 C 330.048 294.229,329.600 297.982,329.387 300.000 C 329.260 301.210,329.072 302.607,328.969 303.104 L 328.783 304.008 311.291 303.904 L 293.800 303.800 293.666 302.800 C 293.593 302.250,293.368 301.629,293.166 301.420 C 292.965 301.211,292.800 300.714,292.800 300.315 C 292.800 299.916,292.638 299.277,292.439 298.895 C 292.240 298.513,291.863 297.390,291.600 296.400 C 291.337 295.410,290.960 294.287,290.761 293.905 C 290.562 293.523,290.400 292.936,290.400 292.600 C 290.400 292.264,290.235 291.677,290.034 291.295 C 289.833 290.913,289.091 288.710,288.384 286.400 C 287.678 284.090,286.213 279.410,285.130 276.000 C 284.047 272.590,282.718 268.360,282.179 266.600 C 279.519 257.931,278.688 255.343,278.359 254.705 C 278.161 254.323,278.000 253.659,278.000 253.229 C 278.000 252.799,277.820 252.336,277.600 252.200 C 277.380 252.064,277.200 251.434,277.200 250.800 C 277.200 250.166,277.020 249.536,276.800 249.400 C 276.580 249.264,276.400 248.724,276.400 248.200 C 276.400 247.676,276.220 247.136,276.000 247.000 C 275.780 246.864,275.600 246.401,275.600 245.971 C 275.600 245.541,275.438 244.877,275.239 244.495 C 275.040 244.113,274.660 242.990,274.393 242.000 C 274.127 241.010,273.772 239.840,273.605 239.400 C 273.325 238.661,272.364 235.629,269.989 228.000 C 269.476 226.350,268.943 224.863,268.804 224.696 C 268.579 224.425,268.071 225.917,265.094 235.600 C 264.655 237.030,264.160 238.560,263.995 239.000 C 263.830 239.440,263.292 241.150,262.800 242.800 C 262.308 244.450,261.767 246.160,261.598 246.600 C 261.429 247.040,261.073 248.210,260.807 249.200 C 260.540 250.190,260.160 251.313,259.961 251.695 C 259.762 252.077,259.600 252.664,259.600 253.000 C 259.600 253.336,259.438 253.923,259.239 254.305 C 259.040 254.687,258.663 255.810,258.400 256.800 C 258.137 257.790,257.760 258.913,257.561 259.295 C 257.362 259.677,257.200 260.341,257.200 260.771 C 257.200 261.201,257.020 261.664,256.800 261.800 C 256.580 261.936,256.400 262.420,256.400 262.876 C 256.400 263.332,255.884 265.256,255.254 267.153 C 254.624 269.049,253.616 272.220,253.014 274.200 C 252.412 276.180,251.391 279.510,250.744 281.600 C 250.097 283.690,249.194 286.660,248.736 288.200 C 248.279 289.740,247.768 291.360,247.600 291.800 C 247.432 292.240,246.895 293.950,246.407 295.600 C 245.918 297.250,245.356 298.913,245.159 299.295 C 244.962 299.677,244.800 300.264,244.800 300.600 C 244.800 300.936,244.633 301.523,244.429 301.905 C 244.225 302.287,243.960 302.917,243.840 303.304 C 243.635 303.965,242.531 304.002,226.111 303.904 L 208.600 303.800 208.330 301.600 C 208.182 300.390,207.855 297.960,207.605 296.200 C 206.473 288.244,206.129 285.545,205.232 277.600 C 205.021 275.730,204.755 273.480,204.641 272.600 C 204.526 271.720,204.237 269.020,203.999 266.600 C 203.760 264.180,203.397 260.580,203.192 258.600 C 202.744 254.274,202.158 247.658,201.597 240.600 C 201.370 237.740,201.005 233.330,200.786 230.800 C 200.568 228.270,200.202 223.230,199.973 219.600 C 199.745 215.970,199.384 210.570,199.170 207.600 C 198.500 198.285,197.993 190.453,197.579 183.000 C 196.044 155.363,195.720 148.196,194.441 113.600 C 194.225 107.770,193.924 101.887,193.771 100.527 C 193.311 96.426,191.368 96.800,213.145 96.800 C 228.131 96.800,232.348 96.909,232.470 97.300 " stroke="none" fill="#545454" fill-rule="evenodd"></path><path id="path2" d="M56.668 97.465 C 56.008 98.125,56.371 303.103,57.033 303.357 C 57.954 303.711,94.719 303.655,94.938 303.300 C 95.040 303.135,86.546 303.000,76.062 303.000 L 57.000 303.000 57.000 200.400 L 57.000 97.800 117.900 97.699 L 178.800 97.597 178.800 114.599 L 178.800 131.600 137.224 131.600 C 114.357 131.600,95.564 131.735,95.462 131.900 C 95.360 132.065,114.114 132.110,137.138 132.000 L 179.000 131.800 179.000 114.600 L 179.000 97.400 117.968 97.299 C 84.400 97.243,56.815 97.318,56.668 97.465 M194.234 97.857 C 194.032 98.383,194.093 98.421,194.541 98.049 C 194.953 97.707,199.991 97.613,213.551 97.692 C 223.698 97.751,232.000 97.665,232.000 97.500 C 232.000 96.802,194.503 97.156,194.234 97.857 M305.929 97.700 C 305.843 97.975,305.884 102.250,306.021 107.200 L 306.269 116.200 306.291 107.000 L 306.314 97.800 325.057 97.594 L 343.800 97.388 324.943 97.294 C 310.141 97.220,306.052 97.308,305.929 97.700 M194.558 104.600 C 194.558 107.680,194.621 108.887,194.697 107.282 C 194.773 105.678,194.773 103.158,194.696 101.682 C 194.619 100.207,194.557 101.520,194.558 104.600 M343.083 109.000 C 342.929 111.200,342.830 114.710,342.862 116.800 C 342.906 119.612,343.009 118.728,343.259 113.400 C 343.632 105.469,343.521 102.699,343.083 109.000 M231.410 123.280 C 231.255 129.726,231.189 135.900,231.264 137.000 C 231.339 138.100,231.553 132.913,231.740 125.474 C 231.927 118.034,231.993 111.860,231.887 111.753 C 231.780 111.647,231.565 116.833,231.410 123.280 M194.934 115.600 C 194.934 117.250,195.005 117.925,195.091 117.100 C 195.178 116.275,195.178 114.925,195.091 114.100 C 195.005 113.275,194.934 113.950,194.934 115.600 M195.361 125.200 C 195.361 128.610,195.422 130.005,195.497 128.300 C 195.572 126.595,195.572 123.805,195.497 122.100 C 195.422 120.395,195.361 121.790,195.361 125.200 M342.288 128.761 C 342.130 130.830,342.027 133.890,342.059 135.561 C 342.100 137.655,342.225 136.734,342.459 132.600 C 342.846 125.787,342.725 123.064,342.288 128.761 M306.717 146.600 C 306.822 154.740,306.975 161.475,307.055 161.567 C 307.294 161.841,307.116 144.666,306.809 138.000 C 306.648 134.485,306.608 138.210,306.717 146.600 M195.731 137.000 C 195.733 138.540,195.805 139.121,195.892 138.291 C 195.979 137.461,195.977 136.201,195.889 135.491 C 195.800 134.781,195.729 135.460,195.731 137.000 M196.153 146.600 C 196.153 149.240,196.218 150.268,196.297 148.884 C 196.375 147.501,196.374 145.341,196.295 144.084 C 196.216 142.828,196.152 143.960,196.153 146.600 M341.720 144.000 C 341.720 145.210,341.795 145.705,341.887 145.100 C 341.978 144.495,341.978 143.505,341.887 142.900 C 341.795 142.295,341.720 142.790,341.720 144.000 M341.346 151.000 C 341.347 153.200,341.414 154.049,341.495 152.887 C 341.576 151.724,341.576 149.924,341.493 148.887 C 341.411 147.849,341.345 148.800,341.346 151.000 M196.524 155.000 C 196.526 156.320,196.601 156.812,196.690 156.093 C 196.779 155.374,196.777 154.294,196.686 153.693 C 196.595 153.092,196.522 153.680,196.524 155.000 M230.701 164.200 C 230.537 168.380,230.430 174.590,230.464 178.000 C 230.513 182.959,230.593 181.919,230.864 172.800 C 231.050 166.530,231.156 160.320,231.101 159.000 C 231.045 157.680,230.866 160.020,230.701 164.200 M340.920 158.800 C 340.920 160.010,340.995 160.505,341.087 159.900 C 341.178 159.295,341.178 158.305,341.087 157.700 C 340.995 157.095,340.920 157.590,340.920 158.800 M196.948 162.800 C 196.948 165.110,197.014 166.055,197.095 164.900 C 197.176 163.745,197.176 161.855,197.095 160.700 C 197.014 159.545,196.948 160.490,196.948 162.800 M340.546 165.000 C 340.547 167.200,340.614 168.049,340.695 166.887 C 340.776 165.724,340.776 163.924,340.693 162.887 C 340.611 161.849,340.545 162.800,340.546 165.000 M197.324 170.200 C 197.326 171.520,197.401 172.012,197.490 171.293 C 197.579 170.574,197.577 169.494,197.486 168.893 C 197.395 168.292,197.322 168.880,197.324 170.200 M252.667 170.667 C 252.520 170.813,252.400 171.119,252.400 171.347 C 252.400 171.594,252.593 171.567,252.880 171.280 C 253.237 170.923,257.335 170.800,268.847 170.800 L 284.333 170.800 284.735 171.900 C 285.061 172.792,285.143 172.845,285.168 172.180 C 285.236 170.422,285.028 170.400,268.587 170.400 C 259.977 170.400,252.813 170.520,252.667 170.667 M340.114 172.600 C 340.117 173.700,340.195 174.103,340.287 173.495 C 340.379 172.886,340.377 171.986,340.282 171.495 C 340.187 171.003,340.111 171.500,340.114 172.600 M251.800 173.600 C 251.648 174.291,251.607 174.941,251.709 175.042 C 251.811 175.144,252.009 174.653,252.150 173.950 C 252.483 172.283,252.160 171.960,251.800 173.600 M197.748 177.600 C 197.748 179.910,197.814 180.855,197.895 179.700 C 197.976 178.545,197.976 176.655,197.895 175.500 C 197.814 174.345,197.748 175.290,197.748 177.600 M307.515 189.000 C 307.622 196.920,307.775 203.475,307.855 203.567 C 308.103 203.851,307.918 186.104,307.612 180.200 C 307.447 177.020,307.405 180.824,307.515 189.000 M339.744 178.800 C 339.744 180.890,339.812 181.745,339.894 180.700 C 339.976 179.655,339.976 177.945,339.894 176.900 C 339.812 175.855,339.744 176.710,339.744 178.800 M251.049 176.615 C 250.912 176.973,250.815 177.566,250.834 177.933 C 250.853 178.300,251.027 178.069,251.221 177.420 C 251.598 176.158,251.465 175.533,251.049 176.615 M286.244 177.800 C 286.573 179.271,286.802 179.590,286.794 178.567 C 286.791 178.145,286.605 177.530,286.382 177.200 C 286.085 176.762,286.048 176.924,286.244 177.800 M95.200 179.298 C 95.200 179.462,111.715 179.642,131.900 179.698 L 168.600 179.800 168.600 196.600 L 168.600 213.400 131.900 213.502 C 111.715 213.558,95.200 213.738,95.200 213.902 C 95.200 214.066,111.805 214.110,132.100 214.000 L 169.000 213.800 169.000 196.600 L 169.000 179.400 132.100 179.200 C 111.805 179.090,95.200 179.134,95.200 179.298 M250.249 179.815 C 250.112 180.173,250.015 180.766,250.034 181.133 C 250.053 181.500,250.227 181.269,250.421 180.620 C 250.798 179.358,250.665 178.733,250.249 179.815 M287.044 181.000 C 287.373 182.471,287.602 182.790,287.594 181.767 C 287.591 181.345,287.405 180.730,287.182 180.400 C 286.885 179.962,286.848 180.124,287.044 181.000 M249.400 183.600 C 249.248 184.291,249.207 184.941,249.309 185.042 C 249.411 185.144,249.609 184.653,249.750 183.950 C 250.083 182.283,249.760 181.960,249.400 183.600 M198.120 184.800 C 198.120 186.010,198.195 186.505,198.287 185.900 C 198.378 185.295,198.378 184.305,198.287 183.700 C 198.195 183.095,198.120 183.590,198.120 184.800 M287.862 184.411 C 288.233 186.266,289.140 189.109,289.173 188.520 C 289.208 187.888,288.073 183.539,287.802 183.269 C 287.686 183.153,287.713 183.667,287.862 184.411 M339.309 186.000 C 339.309 186.990,339.387 187.395,339.482 186.900 C 339.578 186.405,339.578 185.595,339.482 185.100 C 339.387 184.605,339.309 185.010,339.309 186.000 M248.600 186.800 C 248.448 187.491,248.407 188.141,248.509 188.242 C 248.611 188.344,248.809 187.853,248.950 187.150 C 249.283 185.483,248.960 185.160,248.600 186.800 M338.937 191.800 C 338.939 193.560,339.009 194.230,339.093 193.289 C 339.178 192.349,339.177 190.909,339.091 190.089 C 339.005 189.270,338.936 190.040,338.937 191.800 M198.531 191.800 C 198.533 193.340,198.605 193.921,198.692 193.091 C 198.779 192.261,198.777 191.001,198.689 190.291 C 198.600 189.581,198.529 190.260,198.531 191.800 M247.450 191.650 C 247.117 193.317,247.440 193.640,247.800 192.000 C 247.952 191.309,247.993 190.659,247.891 190.558 C 247.789 190.456,247.591 190.947,247.450 191.650 M289.606 191.433 C 289.609 191.855,289.795 192.470,290.018 192.800 C 290.315 193.238,290.352 193.076,290.156 192.200 C 289.827 190.729,289.598 190.410,289.606 191.433 M290.406 194.433 C 290.409 194.965,290.589 195.670,290.806 196.000 C 291.082 196.422,291.123 196.185,290.942 195.200 C 290.625 193.475,290.398 193.149,290.406 194.433 M198.920 196.800 C 198.920 198.010,198.995 198.505,199.087 197.900 C 199.178 197.295,199.178 196.305,199.087 195.700 C 198.995 195.095,198.920 195.590,198.920 196.800 M246.249 196.215 C 246.112 196.573,246.018 197.256,246.041 197.733 C 246.067 198.281,246.203 198.086,246.410 197.203 C 246.760 195.716,246.665 195.133,246.249 196.215 M338.509 197.200 C 338.509 198.190,338.587 198.595,338.682 198.100 C 338.778 197.605,338.778 196.795,338.682 196.300 C 338.587 195.805,338.509 196.210,338.509 197.200 M338.137 203.000 C 338.139 204.760,338.209 205.430,338.293 204.489 C 338.378 203.549,338.377 202.109,338.291 201.289 C 338.205 200.470,338.136 201.240,338.137 203.000 M292.006 201.033 C 292.009 201.455,292.195 202.070,292.418 202.400 C 292.715 202.838,292.752 202.676,292.556 201.800 C 292.227 200.329,291.998 200.010,292.006 201.033 M199.331 203.800 C 199.333 205.340,199.405 205.921,199.492 205.091 C 199.579 204.261,199.577 203.001,199.489 202.291 C 199.400 201.581,199.329 202.260,199.331 203.800 M229.888 206.963 C 229.730 210.023,229.628 215.873,229.663 219.963 C 229.721 226.747,229.756 226.330,230.062 215.200 C 230.427 201.948,230.346 198.118,229.888 206.963 M292.868 203.800 C 292.862 204.240,293.011 204.960,293.200 205.400 C 293.638 206.419,293.638 205.368,293.200 204.000 C 292.943 203.196,292.877 203.157,292.868 203.800 M199.714 208.600 C 199.717 209.700,199.795 210.103,199.887 209.495 C 199.979 208.886,199.977 207.986,199.882 207.495 C 199.787 207.003,199.711 207.500,199.714 208.600 M293.656 207.200 C 293.656 207.530,293.811 208.160,294.000 208.600 C 294.217 209.104,294.344 209.178,294.344 208.800 C 294.344 208.470,294.189 207.840,294.000 207.400 C 293.783 206.896,293.656 206.822,293.656 207.200 M337.709 208.400 C 337.709 209.390,337.787 209.795,337.882 209.300 C 337.978 208.805,337.978 207.995,337.882 207.500 C 337.787 207.005,337.709 207.410,337.709 208.400 M242.846 210.467 C 242.821 210.834,242.696 211.464,242.570 211.867 C 242.352 212.562,242.363 212.563,242.797 211.887 C 243.048 211.496,243.173 210.866,243.073 210.487 C 242.911 209.868,242.888 209.866,242.846 210.467 M337.324 214.600 C 337.326 215.920,337.401 216.412,337.490 215.693 C 337.579 214.974,337.577 213.894,337.486 213.293 C 337.395 212.692,337.322 213.280,337.324 214.600 M295.206 213.433 C 295.209 213.855,295.395 214.470,295.618 214.800 C 295.915 215.238,295.952 215.076,295.756 214.200 C 295.427 212.729,295.198 212.410,295.206 213.433 M242.046 213.667 C 242.021 214.034,241.896 214.664,241.770 215.067 C 241.552 215.762,241.563 215.763,241.997 215.087 C 242.248 214.696,242.373 214.066,242.273 213.687 C 242.111 213.068,242.088 213.066,242.046 213.667 M200.096 216.000 C 200.087 216.990,200.216 218.790,200.383 220.000 L 200.687 222.200 200.704 220.400 C 200.713 219.410,200.584 217.610,200.417 216.400 L 200.113 214.200 200.096 216.000 M336.909 218.800 C 336.909 219.790,336.987 220.195,337.082 219.700 C 337.178 219.205,337.178 218.395,337.082 217.900 C 336.987 217.405,336.909 217.810,336.909 218.800 M308.146 223.400 C 308.147 225.600,308.214 226.449,308.295 225.287 C 308.376 224.124,308.376 222.324,308.293 221.287 C 308.211 220.249,308.145 221.200,308.146 223.400 M297.606 223.033 C 297.609 223.455,297.795 224.070,298.018 224.400 C 298.315 224.838,298.352 224.676,298.156 223.800 C 297.827 222.329,297.598 222.010,297.606 223.033 M336.273 225.760 C 336.115 227.718,336.063 229.396,336.156 229.489 C 336.403 229.736,336.912 223.863,336.722 222.962 C 336.633 222.543,336.431 223.802,336.273 225.760 M239.646 223.267 C 239.621 223.634,239.496 224.264,239.370 224.667 C 239.152 225.362,239.163 225.363,239.597 224.687 C 239.848 224.296,239.973 223.666,239.873 223.287 C 239.711 222.668,239.688 222.666,239.646 223.267 M268.263 223.070 C 267.860 223.474,267.951 224.078,268.375 223.815 C 268.582 223.688,268.936 223.902,269.163 224.292 C 269.522 224.908,269.577 224.915,269.588 224.349 C 269.602 223.597,268.653 222.681,268.263 223.070 M200.891 226.600 C 200.880 227.480,201.010 229.100,201.182 230.200 C 201.431 231.803,201.496 231.922,201.507 230.800 C 201.515 230.030,201.384 228.410,201.217 227.200 C 200.952 225.284,200.910 225.207,200.891 226.600 M298.412 226.400 C 298.412 226.730,298.587 227.270,298.800 227.600 C 299.145 228.133,299.188 228.133,299.188 227.600 C 299.188 227.270,299.013 226.730,298.800 226.400 C 298.455 225.867,298.412 225.867,298.412 226.400 M238.629 227.429 C 238.481 228.015,238.438 228.572,238.532 228.666 C 238.627 228.760,238.824 228.358,238.971 227.771 C 239.119 227.185,239.162 226.628,239.068 226.534 C 238.973 226.440,238.776 226.842,238.629 227.429 M335.720 233.600 C 335.720 234.810,335.795 235.305,335.887 234.700 C 335.978 234.095,335.978 233.105,335.887 232.500 C 335.795 231.895,335.720 232.390,335.720 233.600 M237.000 234.000 C 236.850 234.473,236.817 234.950,236.927 235.060 C 237.037 235.170,237.250 234.873,237.400 234.400 C 237.550 233.927,237.583 233.450,237.473 233.340 C 237.363 233.230,237.150 233.527,237.000 234.000 M201.709 236.800 C 201.709 237.790,201.787 238.195,201.882 237.700 C 201.978 237.205,201.978 236.395,201.882 235.900 C 201.787 235.405,201.709 235.810,201.709 236.800 M300.856 235.600 C 300.856 235.930,301.011 236.560,301.200 237.000 C 301.417 237.504,301.544 237.578,301.544 237.200 C 301.544 236.870,301.389 236.240,301.200 235.800 C 300.983 235.296,300.856 235.222,300.856 235.600 M236.200 237.200 C 236.050 237.673,236.017 238.150,236.127 238.260 C 236.237 238.370,236.450 238.073,236.600 237.600 C 236.750 237.127,236.783 236.650,236.673 236.540 C 236.563 236.430,236.350 236.727,236.200 237.200 M335.301 237.800 C 335.305 238.680,335.387 238.993,335.483 238.495 C 335.579 237.998,335.575 237.278,335.475 236.895 C 335.375 236.513,335.296 236.920,335.301 237.800 M308.577 249.000 C 308.577 255.380,308.632 257.934,308.699 254.676 C 308.767 251.417,308.766 246.197,308.699 243.076 C 308.631 239.954,308.576 242.620,308.577 249.000 M301.668 238.800 C 301.688 239.839,302.318 241.546,302.332 240.600 C 302.338 240.160,302.189 239.440,302.000 239.000 C 301.789 238.510,301.661 238.432,301.668 238.800 M202.114 240.600 C 202.117 241.700,202.195 242.103,202.287 241.495 C 202.379 240.886,202.377 239.986,202.282 239.495 C 202.187 239.003,202.111 239.500,202.114 240.600 M302.456 242.000 C 302.456 242.330,302.611 242.960,302.800 243.400 C 303.017 243.904,303.144 243.978,303.144 243.600 C 303.144 243.270,302.989 242.640,302.800 242.200 C 302.583 241.696,302.456 241.622,302.456 242.000 M334.600 244.400 C 334.444 245.747,334.401 246.934,334.505 247.038 C 334.609 247.142,334.819 246.122,334.971 244.771 C 335.124 243.421,335.167 242.234,335.067 242.133 C 334.966 242.033,334.756 243.053,334.600 244.400 M202.485 246.200 C 202.477 246.860,202.610 248.300,202.782 249.400 C 203.036 251.035,203.097 251.145,203.117 250.000 C 203.130 249.230,202.997 247.790,202.820 246.800 C 202.588 245.491,202.496 245.328,202.485 246.200 M229.337 249.400 C 229.339 251.160,229.409 251.830,229.493 250.889 C 229.578 249.949,229.577 248.509,229.491 247.689 C 229.405 246.870,229.336 247.640,229.337 249.400 M233.000 250.400 C 232.848 251.091,232.807 251.741,232.909 251.842 C 233.011 251.944,233.209 251.453,233.350 250.750 C 233.491 250.047,233.531 249.398,233.441 249.308 C 233.350 249.217,233.152 249.709,233.000 250.400 M333.829 252.029 C 333.676 253.379,333.633 254.566,333.733 254.667 C 333.834 254.767,334.044 253.747,334.200 252.400 C 334.356 251.053,334.399 249.866,334.295 249.762 C 334.191 249.658,333.981 250.678,333.829 252.029 M305.062 252.411 C 305.433 254.266,306.340 257.109,306.373 256.520 C 306.408 255.888,305.273 251.539,305.002 251.269 C 304.886 251.153,304.913 251.667,305.062 252.411 M232.200 253.600 C 232.048 254.291,232.007 254.941,232.109 255.042 C 232.211 255.144,232.409 254.653,232.550 253.950 C 232.691 253.247,232.731 252.598,232.641 252.508 C 232.550 252.417,232.352 252.909,232.200 253.600 M228.880 258.067 C 228.790 264.239,228.991 265.424,229.849 263.771 C 230.532 262.453,230.547 261.971,229.900 262.100 C 229.532 262.174,229.342 260.936,229.180 257.400 L 228.961 252.600 228.880 258.067 M203.280 255.000 C 203.268 255.660,203.403 257.010,203.580 258.000 C 203.816 259.328,203.905 259.485,203.920 258.600 C 203.932 257.940,203.797 256.590,203.620 255.600 C 203.384 254.272,203.295 254.115,203.280 255.000 M231.400 256.800 C 231.248 257.491,231.207 258.141,231.309 258.242 C 231.411 258.344,231.609 257.853,231.750 257.150 C 231.891 256.447,231.931 255.798,231.841 255.708 C 231.750 255.617,231.552 256.109,231.400 256.800 M333.293 258.800 C 333.293 259.570,333.375 259.885,333.476 259.500 C 333.576 259.115,333.576 258.485,333.476 258.100 C 333.375 257.715,333.293 258.030,333.293 258.800 M257.049 258.615 C 256.912 258.973,256.815 259.566,256.834 259.933 C 256.853 260.300,257.027 260.069,257.221 259.420 C 257.598 258.158,257.465 257.533,257.049 258.615 M306.806 259.233 C 306.809 259.765,306.989 260.470,307.206 260.800 C 307.482 261.222,307.523 260.985,307.342 260.000 C 307.025 258.275,306.798 257.949,306.806 259.233 M230.600 260.000 C 230.448 260.691,230.407 261.341,230.509 261.442 C 230.611 261.544,230.809 261.053,230.950 260.350 C 231.091 259.647,231.131 258.998,231.041 258.908 C 230.950 258.817,230.752 259.309,230.600 260.000 M332.901 261.800 C 332.905 262.680,332.987 262.993,333.083 262.495 C 333.179 261.998,333.175 261.278,333.075 260.895 C 332.975 260.513,332.896 260.920,332.901 261.800 M308.446 262.667 C 308.421 262.924,308.284 263.464,308.141 263.867 C 307.940 264.436,307.994 264.497,308.379 264.142 C 308.652 263.891,308.789 263.351,308.684 262.942 C 308.579 262.534,308.472 262.410,308.446 262.667 M204.285 265.200 C 204.407 266.630,204.572 267.875,204.653 267.967 C 204.920 268.270,204.711 265.022,204.385 263.800 C 204.182 263.044,204.146 263.562,204.285 265.200 M255.240 264.640 C 255.010 265.473,254.894 266.227,254.982 266.315 C 255.070 266.403,255.330 265.793,255.560 264.960 C 255.790 264.127,255.906 263.373,255.818 263.285 C 255.730 263.197,255.470 263.807,255.240 264.640 M332.185 268.185 C 332.030 269.423,331.993 270.527,332.103 270.637 C 332.213 270.747,332.430 269.823,332.585 268.585 C 332.739 267.346,332.776 266.243,332.666 266.133 C 332.556 266.023,332.339 266.946,332.185 268.185 M205.077 272.600 C 205.200 273.920,205.368 275.075,205.450 275.167 C 205.718 275.464,205.515 272.634,205.180 271.400 C 204.965 270.611,204.930 271.022,205.077 272.600 M331.400 275.600 C 331.245 276.728,331.202 277.736,331.306 277.839 C 331.409 277.942,331.616 277.100,331.767 275.967 C 331.917 274.834,331.959 273.826,331.861 273.728 C 331.763 273.629,331.555 274.472,331.400 275.600 M205.670 277.800 C 205.657 278.240,205.795 279.320,205.977 280.200 C 206.255 281.545,206.308 281.609,206.307 280.600 C 206.305 279.199,205.708 276.570,205.670 277.800 M330.682 282.350 C 330.527 283.093,330.420 284.173,330.444 284.750 C 330.473 285.442,330.610 285.187,330.847 284.000 C 331.045 283.010,331.152 281.930,331.085 281.600 C 331.019 281.270,330.838 281.608,330.682 282.350 M206.463 285.000 C 206.454 285.440,206.595 286.520,206.777 287.400 L 207.108 289.000 207.114 287.600 C 207.117 286.830,206.976 285.750,206.800 285.200 C 206.541 284.391,206.477 284.353,206.463 285.000 M329.882 289.150 C 329.727 289.893,329.620 290.973,329.644 291.550 C 329.673 292.242,329.810 291.987,330.047 290.800 C 330.245 289.810,330.352 288.730,330.285 288.400 C 330.219 288.070,330.038 288.407,329.882 289.150 M207.472 292.200 C 207.599 293.300,207.769 294.275,207.851 294.367 C 208.132 294.682,207.920 292.199,207.580 291.200 C 207.351 290.526,207.316 290.851,207.472 292.200 M328.901 298.200 C 328.905 299.080,328.987 299.393,329.083 298.895 C 329.179 298.398,329.175 297.678,329.075 297.295 C 328.975 296.913,328.896 297.320,328.901 298.200 M208.501 299.400 C 208.505 300.280,208.587 300.593,208.683 300.095 C 208.779 299.598,208.775 298.878,208.675 298.495 C 208.575 298.113,208.496 298.520,208.501 299.400 M328.304 302.323 L 328.068 303.225 311.072 303.113 C 301.724 303.051,294.283 303.132,294.538 303.294 C 294.792 303.456,302.403 303.591,311.451 303.594 C 328.617 303.600,329.246 303.539,328.708 301.924 C 328.616 301.647,328.434 301.827,328.304 302.323 M208.812 302.492 C 208.793 303.583,209.626 303.629,227.000 303.507 L 243.400 303.391 226.520 303.295 C 210.925 303.207,209.609 303.147,209.232 302.500 C 208.848 301.841,208.824 301.841,208.812 302.492 " stroke="none" fill="#acacac" fill-rule="evenodd"></path><path id="path3" d="M232.128 100.000 C 232.128 101.430,232.201 102.015,232.289 101.300 C 232.378 100.585,232.378 99.415,232.289 98.700 C 232.201 97.985,232.128 98.570,232.128 100.000 M343.724 99.800 C 343.726 101.120,343.801 101.612,343.890 100.893 C 343.979 100.174,343.977 99.094,343.886 98.493 C 343.795 97.892,343.722 98.480,343.724 99.800 M305.728 102.400 C 305.728 103.830,305.801 104.415,305.889 103.700 C 305.978 102.985,305.978 101.815,305.889 101.100 C 305.801 100.385,305.728 100.970,305.728 102.400 M194.514 111.800 C 194.517 112.900,194.595 113.303,194.687 112.695 C 194.779 112.086,194.777 111.186,194.682 110.695 C 194.587 110.203,194.511 110.700,194.514 111.800 M306.137 119.000 C 306.139 120.760,306.209 121.430,306.293 120.489 C 306.378 119.549,306.377 118.109,306.291 117.289 C 306.205 116.470,306.136 117.240,306.137 119.000 M342.914 122.200 C 342.917 123.300,342.995 123.703,343.087 123.095 C 343.179 122.486,343.177 121.586,343.082 121.095 C 342.987 120.603,342.911 121.100,342.914 122.200 M231.742 127.800 C 231.741 129.780,231.808 130.640,231.892 129.712 C 231.976 128.784,231.977 127.164,231.895 126.112 C 231.812 125.060,231.743 125.820,231.742 127.800 M195.320 133.200 C 195.320 134.410,195.395 134.905,195.487 134.300 C 195.578 133.695,195.578 132.705,195.487 132.100 C 195.395 131.495,195.320 131.990,195.320 133.200 M342.109 140.000 C 342.109 140.990,342.187 141.395,342.282 140.900 C 342.378 140.405,342.378 139.595,342.282 139.100 C 342.187 138.605,342.109 139.010,342.109 140.000 M231.337 141.800 C 231.339 143.560,231.409 144.230,231.493 143.289 C 231.578 142.349,231.577 140.909,231.491 140.089 C 231.405 139.270,231.336 140.040,231.337 141.800 M306.540 146.400 C 306.540 148.270,306.609 149.035,306.693 148.100 C 306.777 147.165,306.777 145.635,306.693 144.700 C 306.609 143.765,306.540 144.530,306.540 146.400 M196.101 152.600 C 196.105 153.480,196.187 153.793,196.283 153.295 C 196.379 152.798,196.375 152.078,196.275 151.695 C 196.175 151.313,196.096 151.720,196.101 152.600 M341.293 156.000 C 341.293 156.770,341.375 157.085,341.476 156.700 C 341.576 156.315,341.576 155.685,341.476 155.300 C 341.375 154.915,341.293 155.230,341.293 156.000 M306.958 167.000 C 306.958 170.080,307.021 171.287,307.097 169.682 C 307.173 168.078,307.173 165.558,307.096 164.082 C 307.019 162.607,306.957 163.920,306.958 167.000 M196.893 168.000 C 196.893 168.770,196.975 169.085,197.076 168.700 C 197.176 168.315,197.176 167.685,197.076 167.300 C 196.975 166.915,196.893 167.230,196.893 168.000 M230.951 172.400 C 230.951 174.930,231.016 175.965,231.096 174.700 C 231.175 173.435,231.175 171.365,231.096 170.100 C 231.016 168.835,230.951 169.870,230.951 172.400 M340.493 170.000 C 340.493 170.770,340.575 171.085,340.676 170.700 C 340.776 170.315,340.776 169.685,340.676 169.300 C 340.575 168.915,340.493 169.230,340.493 170.000 M169.383 196.600 C 169.383 205.840,169.436 209.563,169.500 204.873 C 169.564 200.183,169.564 192.623,169.499 188.073 C 169.435 183.523,169.383 187.360,169.383 196.600 M230.537 187.000 C 230.539 188.760,230.609 189.430,230.693 188.489 C 230.778 187.549,230.777 186.109,230.691 185.289 C 230.605 184.470,230.536 185.240,230.537 187.000 M307.351 190.000 C 307.351 192.530,307.416 193.565,307.496 192.300 C 307.575 191.035,307.575 188.965,307.496 187.700 C 307.416 186.435,307.351 187.470,307.351 190.000 M307.765 210.400 C 307.765 214.250,307.825 215.825,307.898 213.900 C 307.971 211.975,307.971 208.825,307.898 206.900 C 307.825 204.975,307.765 206.550,307.765 210.400 M230.160 215.800 C 230.161 219.100,230.222 220.397,230.298 218.682 C 230.373 216.967,230.372 214.267,230.297 212.682 C 230.221 211.097,230.159 212.500,230.160 215.800 M229.728 229.600 C 229.728 231.030,229.801 231.615,229.889 230.900 C 229.978 230.185,229.978 229.015,229.889 228.300 C 229.801 227.585,229.728 228.170,229.728 229.600 M308.161 233.200 C 308.161 236.610,308.222 238.005,308.297 236.300 C 308.372 234.595,308.372 231.805,308.297 230.100 C 308.222 228.395,308.161 229.790,308.161 233.200 M229.286 257.076 C 229.207 261.575,229.507 263.121,230.234 261.945 C 230.412 261.657,230.350 261.583,230.074 261.754 C 229.753 261.952,229.589 260.625,229.499 257.116 L 229.373 252.200 229.286 257.076 " stroke="none" fill="#a4a4a4" fill-rule="evenodd"></path><path id="path4" d="M56.268 97.065 C 55.884 97.450,55.948 302.898,56.332 303.504 C 56.584 303.900,60.792 303.986,76.026 303.904 L 95.400 303.800 95.502 259.102 L 95.603 214.404 132.468 214.302 C 164.840 214.212,169.353 214.127,169.497 213.600 C 169.618 213.158,169.568 213.131,169.308 213.498 C 169.032 213.888,160.967 214.018,132.178 214.098 L 95.400 214.200 95.298 258.904 L 95.197 303.608 75.898 303.504 L 56.600 303.400 56.499 200.300 L 56.398 97.200 117.799 97.200 L 179.200 97.200 179.200 114.598 L 179.200 131.996 137.300 132.098 L 95.400 132.200 95.395 155.300 L 95.390 178.400 95.498 155.402 L 95.606 132.404 137.503 132.302 L 179.400 132.200 179.400 114.600 L 179.400 97.000 117.968 96.899 C 84.180 96.843,56.415 96.918,56.268 97.065 M193.735 97.425 C 193.603 97.769,193.682 99.704,193.911 101.725 L 194.327 105.400 194.263 101.400 L 194.200 97.400 213.182 97.400 L 232.164 97.400 232.442 98.400 C 232.599 98.964,232.738 99.109,232.760 98.733 C 232.881 96.715,233.745 96.800,213.145 96.800 C 196.128 96.800,193.948 96.870,193.735 97.425 M305.357 97.368 C 305.237 97.681,305.319 101.956,305.538 106.868 L 305.937 115.800 305.743 106.492 L 305.549 97.185 324.775 97.292 C 335.349 97.352,344.000 97.265,344.000 97.100 C 344.000 96.479,305.596 96.745,305.357 97.368 M343.685 105.639 C 343.638 107.750,343.519 111.170,343.420 113.239 L 343.239 117.000 343.630 113.600 C 343.845 111.730,343.964 108.310,343.895 106.000 L 343.770 101.800 343.685 105.639 M232.178 114.800 C 232.178 121.730,232.233 124.565,232.299 121.100 C 232.366 117.635,232.366 111.965,232.299 108.500 C 232.233 105.035,232.178 107.870,232.178 114.800 M194.443 117.233 C 194.467 119.305,194.629 122.080,194.804 123.400 C 195.002 124.901,195.042 123.553,194.910 119.800 C 194.674 113.081,194.377 111.444,194.443 117.233 M306.180 135.600 C 306.180 143.190,306.234 146.295,306.299 142.500 C 306.365 138.705,306.365 132.495,306.299 128.700 C 306.234 124.905,306.180 128.010,306.180 135.600 M342.884 126.640 C 342.838 128.201,342.716 130.901,342.613 132.640 C 342.433 135.691,342.440 135.724,342.825 133.600 C 343.045 132.390,343.167 129.690,343.096 127.600 C 342.983 124.273,342.957 124.154,342.884 126.640 M231.755 136.200 C 231.756 139.060,231.820 140.178,231.897 138.683 C 231.974 137.189,231.974 134.849,231.896 133.483 C 231.818 132.118,231.755 133.340,231.755 136.200 M195.235 138.433 C 195.254 140.285,195.418 142.700,195.600 143.800 C 195.812 145.089,195.853 143.951,195.714 140.600 C 195.468 134.685,195.183 133.392,195.235 138.433 M342.078 143.441 C 342.035 144.564,341.915 146.634,341.811 148.041 L 341.622 150.600 342.028 148.653 C 342.252 147.582,342.372 145.512,342.296 144.053 C 342.173 141.709,342.148 141.638,342.078 143.441 M231.378 157.000 C 231.378 163.820,231.432 166.666,231.499 163.325 C 231.566 159.984,231.566 154.404,231.499 150.925 C 231.433 147.446,231.378 150.180,231.378 157.000 M306.550 153.800 C 306.551 156.220,306.616 157.158,306.696 155.885 C 306.776 154.612,306.775 152.632,306.694 151.485 C 306.614 150.338,306.549 151.380,306.550 153.800 M196.035 156.433 C 196.054 157.845,196.220 159.900,196.404 161.000 C 196.633 162.372,196.670 161.618,196.522 158.600 C 196.283 153.748,195.980 152.400,196.035 156.433 M341.088 160.955 C 340.917 163.130,340.856 164.989,340.953 165.086 C 341.233 165.366,341.680 160.367,341.533 158.600 C 341.453 157.632,341.277 158.562,341.088 160.955 M196.835 171.433 C 196.854 172.735,197.019 174.700,197.201 175.800 C 197.429 177.178,197.465 176.493,197.316 173.600 C 197.080 169.012,196.779 167.657,196.835 171.433 M252.480 170.480 C 252.216 170.744,252.011 171.239,252.025 171.580 C 252.041 171.960,252.191 171.852,252.412 171.300 L 252.774 170.400 268.538 170.400 C 285.121 170.400,284.861 170.372,285.311 172.200 C 285.494 172.945,285.510 172.940,285.554 172.129 C 285.667 170.006,285.618 170.000,268.651 170.000 C 256.980 170.000,252.837 170.123,252.480 170.480 M340.288 174.955 C 340.117 177.130,340.056 178.989,340.153 179.086 C 340.433 179.366,340.880 174.367,340.733 172.600 C 340.653 171.632,340.477 172.562,340.288 174.955 M251.028 175.290 C 250.652 176.890,250.244 178.560,250.122 179.000 C 250.000 179.440,250.024 179.684,250.176 179.541 C 250.530 179.208,252.099 172.766,251.879 172.546 C 251.788 172.455,251.405 173.689,251.028 175.290 M306.896 183.400 C 306.898 189.560,307.016 195.860,307.159 197.400 C 307.302 198.940,307.359 194.170,307.285 186.800 C 307.211 179.430,307.092 173.130,307.022 172.800 C 306.951 172.470,306.894 177.240,306.896 183.400 M230.942 180.200 C 230.941 182.180,231.008 183.040,231.092 182.112 C 231.176 181.184,231.177 179.564,231.095 178.512 C 231.012 177.460,230.943 178.220,230.942 180.200 M286.834 178.600 C 286.822 179.040,286.987 179.670,287.200 180.000 C 287.714 180.795,287.714 179.796,287.200 178.600 L 286.856 177.800 286.834 178.600 M131.962 179.099 C 160.411 179.181,168.657 179.315,169.127 179.702 C 169.621 180.110,169.694 180.092,169.532 179.600 C 169.357 179.072,164.869 179.000,132.367 178.997 L 95.400 178.994 131.962 179.099 M249.429 181.829 C 249.281 182.415,249.238 182.972,249.332 183.066 C 249.427 183.160,249.624 182.758,249.771 182.171 C 249.919 181.585,249.962 181.028,249.868 180.934 C 249.773 180.840,249.576 181.242,249.429 181.829 M287.612 182.000 C 287.612 182.330,287.787 182.870,288.000 183.200 C 288.345 183.733,288.388 183.733,288.388 183.200 C 288.388 182.870,288.213 182.330,288.000 182.000 C 287.655 181.467,287.612 181.467,287.612 182.000 M197.708 185.400 C 197.700 186.500,197.825 188.570,197.986 190.000 C 198.262 192.455,198.279 192.489,198.292 190.600 C 198.300 189.500,198.175 187.430,198.014 186.000 C 197.738 183.545,197.721 183.511,197.708 185.400 M248.629 185.029 C 248.481 185.615,248.438 186.172,248.532 186.266 C 248.627 186.360,248.824 185.958,248.971 185.371 C 249.119 184.785,249.162 184.228,249.068 184.134 C 248.973 184.040,248.776 184.442,248.629 185.029 M339.473 187.760 C 339.315 189.718,339.263 191.396,339.356 191.489 C 339.603 191.736,340.112 185.863,339.922 184.962 C 339.833 184.543,339.631 185.802,339.473 187.760 M288.412 185.200 C 288.412 185.530,288.587 186.070,288.800 186.400 C 289.145 186.933,289.188 186.933,289.188 186.400 C 289.188 186.070,289.013 185.530,288.800 185.200 C 288.455 184.667,288.412 184.667,288.412 185.200 M247.829 188.229 C 247.681 188.815,247.638 189.372,247.732 189.466 C 247.827 189.560,248.024 189.158,248.171 188.571 C 248.319 187.985,248.362 187.428,248.268 187.334 C 248.173 187.240,247.976 187.642,247.829 188.229 M230.495 204.238 C 230.443 212.179,230.320 220.639,230.222 223.038 L 230.043 227.400 230.420 223.600 C 230.627 221.510,230.750 213.050,230.693 204.800 L 230.590 189.800 230.495 204.238 M247.000 191.600 C 246.850 192.073,246.817 192.550,246.927 192.660 C 247.037 192.770,247.250 192.473,247.400 192.000 C 247.550 191.527,247.583 191.050,247.473 190.940 C 247.363 190.830,247.150 191.127,247.000 191.600 M246.200 194.800 C 246.050 195.273,246.017 195.750,246.127 195.860 C 246.237 195.970,246.450 195.673,246.600 195.200 C 246.750 194.727,246.783 194.250,246.673 194.140 C 246.563 194.030,246.350 194.327,246.200 194.800 M198.502 197.800 C 198.494 198.900,198.621 200.880,198.785 202.200 L 199.082 204.600 199.098 202.600 C 199.106 201.500,198.979 199.520,198.815 198.200 L 198.518 195.800 198.502 197.800 M338.633 199.536 C 338.471 201.371,338.426 202.959,338.532 203.066 C 338.796 203.329,339.334 197.400,339.107 196.732 C 339.008 196.439,338.794 197.701,338.633 199.536 M245.467 197.867 C 245.320 198.013,245.211 198.508,245.225 198.967 C 245.249 199.733,245.282 199.723,245.634 198.842 C 246.026 197.863,245.944 197.389,245.467 197.867 M244.667 201.067 C 244.520 201.213,244.411 201.708,244.425 202.167 C 244.449 202.933,244.482 202.923,244.834 202.042 C 245.226 201.063,245.144 200.589,244.667 201.067 M243.867 204.267 C 243.720 204.413,243.611 204.908,243.625 205.367 C 243.649 206.133,243.682 206.123,244.034 205.242 C 244.426 204.263,244.344 203.789,243.867 204.267 M293.444 205.000 C 293.773 206.471,294.002 206.790,293.994 205.767 C 293.991 205.345,293.805 204.730,293.582 204.400 C 293.285 203.962,293.248 204.124,293.444 205.000 M294.028 207.476 C 294.118 208.515,294.744 209.396,294.772 208.524 C 294.787 208.042,294.620 207.536,294.400 207.400 C 294.180 207.264,294.013 207.298,294.028 207.476 M337.836 210.339 C 337.675 211.955,337.631 213.364,337.737 213.470 C 338.001 213.734,338.531 208.590,338.307 207.930 C 338.209 207.639,337.997 208.722,337.836 210.339 M199.300 209.400 C 199.293 210.280,199.421 212.080,199.585 213.400 C 199.857 215.592,199.884 215.644,199.902 214.000 C 199.912 213.010,199.784 211.210,199.617 210.000 C 199.356 208.111,199.311 208.026,199.300 209.400 M295.044 211.000 C 295.373 212.471,295.602 212.790,295.594 211.767 C 295.591 211.345,295.405 210.730,295.182 210.400 C 294.885 209.962,294.848 210.124,295.044 211.000 M295.858 214.400 C 296.175 216.125,296.402 216.451,296.394 215.167 C 296.391 214.635,296.211 213.930,295.994 213.600 C 295.718 213.178,295.677 213.415,295.858 214.400 M241.449 214.215 C 241.312 214.573,241.215 215.166,241.234 215.533 C 241.253 215.900,241.427 215.669,241.621 215.020 C 241.998 213.758,241.865 213.133,241.449 214.215 M296.644 217.400 C 296.973 218.871,297.202 219.190,297.194 218.167 C 297.191 217.745,297.005 217.130,296.782 216.800 C 296.485 216.362,296.448 216.524,296.644 217.400 M240.649 217.415 C 240.512 217.773,240.415 218.366,240.434 218.733 C 240.453 219.100,240.627 218.869,240.821 218.220 C 241.198 216.958,241.065 216.333,240.649 217.415 M307.693 228.200 C 307.693 234.360,307.811 240.570,307.955 242.000 C 308.099 243.430,308.157 238.660,308.084 231.400 C 308.012 224.140,307.894 217.930,307.822 217.600 C 307.751 217.270,307.693 222.040,307.693 228.200 M337.000 221.600 C 336.842 223.385,336.799 224.932,336.903 225.037 C 337.008 225.142,337.222 223.765,337.378 221.978 C 337.534 220.190,337.577 218.644,337.474 218.541 C 337.371 218.438,337.158 219.815,337.000 221.600 M200.109 221.200 C 200.109 222.190,200.187 222.595,200.282 222.100 C 200.378 221.605,200.378 220.795,200.282 220.300 C 200.187 219.805,200.109 220.210,200.109 221.200 M297.444 220.600 C 297.773 222.071,298.002 222.390,297.994 221.367 C 297.991 220.945,297.805 220.330,297.582 220.000 C 297.285 219.562,297.248 219.724,297.444 220.600 M239.849 220.615 C 239.712 220.973,239.615 221.566,239.634 221.933 C 239.653 222.300,239.827 222.069,240.021 221.420 C 240.398 220.158,240.265 219.533,239.849 220.615 M298.262 224.000 C 298.398 224.770,298.662 225.670,298.848 226.000 C 299.052 226.361,299.088 226.043,298.938 225.200 C 298.802 224.430,298.538 223.530,298.352 223.200 C 298.148 222.839,298.112 223.157,298.262 224.000 M200.534 226.000 C 200.534 227.650,200.605 228.325,200.691 227.500 C 200.778 226.675,200.778 225.325,200.691 224.500 C 200.605 223.675,200.534 224.350,200.534 226.000 M239.049 223.815 C 238.912 224.173,238.818 224.856,238.841 225.333 C 238.867 225.881,239.003 225.686,239.210 224.803 C 239.560 223.316,239.465 222.733,239.049 223.815 M268.138 224.617 C 268.008 224.957,268.013 225.347,268.151 225.484 C 268.288 225.621,268.400 225.423,268.400 225.043 C 268.400 224.663,268.580 224.464,268.800 224.600 C 269.020 224.736,269.200 224.657,269.200 224.424 C 269.200 223.775,268.406 223.920,268.138 224.617 M238.249 227.015 C 238.112 227.373,238.018 228.056,238.041 228.533 C 238.067 229.081,238.203 228.886,238.410 228.003 C 238.760 226.516,238.665 225.933,238.249 227.015 M336.188 230.988 C 336.031 232.664,335.989 234.123,336.095 234.229 C 336.201 234.334,336.412 233.046,336.565 231.365 C 336.717 229.684,336.759 228.226,336.658 228.124 C 336.557 228.023,336.345 229.312,336.188 230.988 M200.901 231.400 C 200.905 232.280,200.987 232.593,201.083 232.095 C 201.179 231.598,201.175 230.878,201.075 230.495 C 200.975 230.113,200.896 230.520,200.901 231.400 M270.806 230.633 C 270.809 231.055,270.995 231.670,271.218 232.000 C 271.515 232.438,271.552 232.276,271.356 231.400 C 271.027 229.929,270.798 229.610,270.806 230.633 M300.006 231.033 C 300.009 231.455,300.195 232.070,300.418 232.400 C 300.715 232.838,300.752 232.676,300.556 231.800 C 300.227 230.329,299.998 230.010,300.006 231.033 M237.254 231.467 C 237.225 231.944,237.096 232.664,236.970 233.067 C 236.752 233.761,236.764 233.762,237.196 233.088 C 237.447 232.697,237.575 231.977,237.481 231.488 C 237.309 230.601,237.309 230.601,237.254 231.467 M229.690 246.980 C 229.641 255.329,229.735 261.989,229.900 261.780 C 230.065 261.571,230.106 254.740,229.990 246.600 L 229.781 231.800 229.690 246.980 M265.093 234.293 C 264.720 235.533,264.481 236.614,264.563 236.696 C 264.645 236.778,265.027 235.841,265.413 234.613 C 265.799 233.386,266.038 232.305,265.944 232.211 C 265.850 232.116,265.467 233.054,265.093 234.293 M201.331 235.800 C 201.333 237.340,201.405 237.921,201.492 237.091 C 201.579 236.261,201.577 235.001,201.489 234.291 C 201.400 233.581,201.329 234.260,201.331 235.800 M236.454 234.667 C 236.425 235.144,236.296 235.864,236.170 236.267 C 235.952 236.961,235.964 236.962,236.396 236.288 C 236.647 235.897,236.775 235.177,236.681 234.688 C 236.509 233.801,236.509 233.801,236.454 234.667 M301.668 237.000 C 301.662 237.440,301.811 238.160,302.000 238.600 C 302.438 239.619,302.438 238.568,302.000 237.200 C 301.743 236.396,301.677 236.357,301.668 237.000 M335.701 238.600 C 335.705 239.480,335.787 239.793,335.883 239.295 C 335.979 238.798,335.975 238.078,335.875 237.695 C 335.775 237.313,335.696 237.720,335.701 238.600 M201.701 241.000 C 201.705 241.880,201.787 242.193,201.883 241.695 C 201.979 241.198,201.975 240.478,201.875 240.095 C 201.775 239.713,201.696 240.120,201.701 241.000 M263.246 240.067 C 263.221 240.434,263.096 241.064,262.970 241.467 C 262.752 242.162,262.763 242.163,263.197 241.487 C 263.448 241.096,263.573 240.466,263.473 240.087 C 263.311 239.468,263.288 239.466,263.246 240.067 M302.456 240.400 C 302.456 240.730,302.611 241.360,302.800 241.800 C 303.017 242.304,303.144 242.378,303.144 242.000 C 303.144 241.670,302.989 241.040,302.800 240.600 C 302.583 240.096,302.456 240.022,302.456 240.400 M335.320 242.400 C 335.320 243.610,335.395 244.105,335.487 243.500 C 335.578 242.895,335.578 241.905,335.487 241.300 C 335.395 240.695,335.320 241.190,335.320 242.400 M234.650 242.050 C 234.509 242.753,234.469 243.402,234.559 243.492 C 234.650 243.583,234.848 243.091,235.000 242.400 C 235.152 241.709,235.193 241.059,235.091 240.958 C 234.989 240.856,234.791 241.347,234.650 242.050 M303.256 243.600 C 303.256 243.930,303.411 244.560,303.600 245.000 C 303.817 245.504,303.944 245.578,303.944 245.200 C 303.944 244.870,303.789 244.240,303.600 243.800 C 303.383 243.296,303.256 243.222,303.256 243.600 M202.131 246.200 C 202.133 247.740,202.205 248.321,202.292 247.491 C 202.379 246.661,202.377 245.401,202.289 244.691 C 202.200 243.981,202.129 244.660,202.131 246.200 M234.046 244.467 C 234.021 244.834,233.896 245.464,233.770 245.867 C 233.552 246.562,233.563 246.563,233.997 245.887 C 234.248 245.496,234.373 244.866,234.273 244.487 C 234.111 243.868,234.088 243.866,234.046 244.467 M334.668 247.359 C 334.520 248.433,334.424 250.052,334.453 250.956 C 334.486 251.979,334.635 251.392,334.848 249.400 C 335.227 245.850,335.089 244.287,334.668 247.359 M233.050 248.450 C 232.909 249.153,232.869 249.802,232.959 249.892 C 233.050 249.983,233.248 249.491,233.400 248.800 C 233.552 248.109,233.593 247.459,233.491 247.358 C 233.389 247.256,233.191 247.747,233.050 248.450 M202.493 250.400 C 202.493 251.170,202.575 251.485,202.676 251.100 C 202.776 250.715,202.776 250.085,202.676 249.700 C 202.575 249.315,202.493 249.630,202.493 250.400 M232.229 251.829 C 232.081 252.415,232.038 252.972,232.132 253.066 C 232.227 253.160,232.424 252.758,232.571 252.171 C 232.719 251.585,232.762 251.028,232.668 250.934 C 232.573 250.840,232.376 251.242,232.229 251.829 M202.823 254.633 C 202.836 255.935,202.996 257.720,203.178 258.600 C 203.399 259.662,203.440 258.923,203.300 256.400 C 203.060 252.090,202.788 251.083,202.823 254.633 M305.612 253.200 C 305.612 253.530,305.787 254.070,306.000 254.400 C 306.345 254.933,306.388 254.933,306.388 254.400 C 306.388 254.070,306.213 253.530,306.000 253.200 C 305.655 252.667,305.612 252.667,305.612 253.200 M334.093 254.400 C 334.093 255.170,334.175 255.485,334.276 255.100 C 334.376 254.715,334.376 254.085,334.276 253.700 C 334.175 253.315,334.093 253.630,334.093 254.400 M231.429 255.029 C 231.281 255.615,231.238 256.172,231.332 256.266 C 231.427 256.360,231.624 255.958,231.771 255.371 C 231.919 254.785,231.962 254.228,231.868 254.134 C 231.773 254.040,231.576 254.442,231.429 255.029 M333.720 258.000 C 333.720 259.210,333.795 259.705,333.887 259.100 C 333.978 258.495,333.978 257.505,333.887 256.900 C 333.795 256.295,333.720 256.790,333.720 258.000 M203.728 262.800 C 203.728 264.230,203.801 264.815,203.889 264.100 C 203.978 263.385,203.978 262.215,203.889 261.500 C 203.801 260.785,203.728 261.370,203.728 262.800 M333.293 262.400 C 333.293 263.170,333.375 263.485,333.476 263.100 C 333.576 262.715,333.576 262.085,333.476 261.700 C 333.375 261.315,333.293 261.630,333.293 262.400 M255.800 264.000 C 255.650 264.473,255.617 264.950,255.727 265.060 C 255.837 265.170,256.050 264.873,256.200 264.400 C 256.350 263.927,256.383 263.450,256.273 263.340 C 256.163 263.230,255.950 263.527,255.800 264.000 M332.924 266.600 C 332.926 267.920,333.001 268.412,333.090 267.693 C 333.179 266.974,333.177 265.894,333.086 265.293 C 332.995 264.692,332.922 265.280,332.924 266.600 M204.093 266.800 C 204.093 267.570,204.175 267.885,204.276 267.500 C 204.376 267.115,204.376 266.485,204.276 266.100 C 204.175 265.715,204.093 266.030,204.093 266.800 M204.440 271.033 C 204.462 272.115,204.622 273.450,204.797 274.000 C 204.981 274.581,205.025 273.827,204.901 272.200 C 204.651 268.904,204.383 268.227,204.440 271.033 M332.120 274.000 C 332.120 275.210,332.195 275.705,332.287 275.100 C 332.378 274.495,332.378 273.505,332.287 272.900 C 332.195 272.295,332.120 272.790,332.120 274.000 M205.240 277.833 C 205.262 278.915,205.422 280.250,205.597 280.800 C 205.781 281.381,205.825 280.627,205.701 279.000 C 205.451 275.704,205.183 275.027,205.240 277.833 M285.448 277.000 C 285.591 277.660,285.866 278.470,286.059 278.800 C 286.284 279.184,286.318 278.968,286.152 278.200 C 286.009 277.540,285.734 276.730,285.541 276.400 C 285.316 276.016,285.282 276.232,285.448 277.000 M331.320 281.200 C 331.320 282.410,331.395 282.905,331.487 282.300 C 331.578 281.695,331.578 280.705,331.487 280.100 C 331.395 279.495,331.320 279.990,331.320 281.200 M206.040 284.633 C 206.062 285.715,206.222 287.050,206.397 287.600 C 206.581 288.181,206.625 287.427,206.501 285.800 C 206.251 282.504,205.983 281.827,206.040 284.633 M248.693 287.093 C 248.320 288.333,248.081 289.414,248.163 289.496 C 248.245 289.578,248.627 288.641,249.013 287.413 C 249.399 286.186,249.638 285.105,249.544 285.011 C 249.450 284.916,249.067 285.854,248.693 287.093 M330.470 288.250 C 330.431 289.157,330.311 290.507,330.201 291.250 L 330.003 292.600 330.423 291.262 C 330.653 290.527,330.774 289.177,330.691 288.262 L 330.540 286.600 330.470 288.250 M206.828 291.233 C 206.844 291.985,207.020 292.960,207.220 293.400 C 207.465 293.939,207.505 293.546,207.341 292.200 C 207.051 289.819,206.789 289.324,206.828 291.233 M246.846 292.867 C 246.821 293.234,246.696 293.864,246.570 294.267 C 246.352 294.962,246.363 294.963,246.797 294.287 C 247.048 293.896,247.173 293.266,247.073 292.887 C 246.911 292.268,246.888 292.266,246.846 292.867 M329.667 294.850 C 329.630 295.647,329.511 296.907,329.401 297.650 L 329.203 299.000 329.623 297.660 C 329.854 296.923,329.974 295.663,329.889 294.860 L 329.734 293.400 329.667 294.850 M207.628 296.833 C 207.644 297.585,207.812 298.560,208.003 299.000 C 208.226 299.515,208.267 299.087,208.118 297.800 C 207.844 295.422,207.589 294.919,207.628 296.833 M328.763 302.000 L 328.600 303.400 311.646 303.504 C 298.469 303.586,294.556 303.496,294.081 303.104 C 293.577 302.688,293.505 302.705,293.668 303.200 C 293.840 303.719,296.224 303.814,311.325 303.904 L 328.783 304.008 329.027 303.036 C 329.161 302.501,329.193 301.734,329.099 301.332 C 328.997 300.899,328.860 301.173,328.763 302.000 M208.504 302.800 L 208.600 303.800 226.167 303.800 C 240.083 303.800,243.755 303.694,243.837 303.290 C 243.894 303.010,243.849 302.964,243.737 303.190 C 243.603 303.460,237.687 303.600,226.354 303.600 L 209.174 303.600 208.791 302.700 C 208.414 301.813,208.409 301.815,208.504 302.800 " stroke="none" fill="#8c8c8c" fill-rule="evenodd"></path></g></svg>